<svg width="23" height="24" viewBox="0 0 23 24" fill="none" xmlns="http://www.w3.org/2000/svg">
<path d="M23 2.14453C23 1.78906 22.8477 1.48438 22.5938 1.23047C22.3398 1.02734 22.0352 0.875 21.7305 0.875H1.51953C1.11328 0.875 0.808594 1.02734 0.605469 1.23047C0.351562 1.48438 0.25 1.78906 0.25 2.14453V22.3555C0.25 22.7109 0.351562 23.0156 0.605469 23.2695C0.808594 23.5234 1.11328 23.625 1.51953 23.625H12.3867V14.7891H9.44141V11.3867H12.3867V8.84766C12.3867 7.42578 12.793 6.30859 13.6055 5.49609C14.418 4.73438 15.4844 4.32812 16.8047 4.32812C17.8203 4.32812 18.7344 4.37891 19.4453 4.42969V7.52734H17.6172C16.957 7.52734 16.5 7.67969 16.2461 7.98438C16.043 8.23828 15.9414 8.64453 15.9414 9.20312V11.3867H19.3438L18.8867 14.7891H15.9414V23.625H21.7305C22.0859 23.625 22.3906 23.5234 22.6445 23.2695C22.8477 23.0156 23 22.7109 23 22.3555V2.14453Z" fill="#175297"/>
</svg>
