<svg width="26" height="26" viewBox="0 0 26 26" fill="none" xmlns="http://www.w3.org/2000/svg">
<path d="M9.24219 20.4102C9.24219 20.4102 9.19141 20.3594 9.14062 20.3086C9.08984 20.3086 9.03906 20.2578 8.9375 20.2578C8.73438 20.2578 8.68359 20.3594 8.68359 20.4609C8.68359 20.6133 8.73438 20.6641 8.9375 20.6641C9.14062 20.6641 9.24219 20.5625 9.24219 20.4102ZM7.66797 20.207C7.66797 20.1055 7.76953 20.0547 7.97266 20.1055C8.125 20.1562 8.17578 20.207 8.17578 20.3086C8.17578 20.4102 8.125 20.4609 8.07422 20.4609C7.97266 20.5117 7.92188 20.5117 7.87109 20.4609C7.76953 20.4609 7.71875 20.4102 7.66797 20.3594C7.61719 20.3086 7.61719 20.2578 7.66797 20.207ZM9.90234 20.1055C10.0547 20.1055 10.1562 20.1562 10.1562 20.2578C10.1562 20.3594 10.1055 20.4609 9.95312 20.5117C9.85156 20.5117 9.80078 20.5117 9.75 20.5117C9.69922 20.5117 9.64844 20.4102 9.64844 20.3086C9.64844 20.207 9.69922 20.1562 9.90234 20.1055ZM13.2539 0.65625C15.5391 0.65625 17.6719 1.21484 19.6523 2.28125C21.582 3.39844 23.1562 4.87109 24.2734 6.69922C25.3906 8.62891 26 10.7617 26 13.0469C26 15.8906 25.1875 18.3789 23.6133 20.6133C22.0391 22.8477 20.0078 24.3711 17.4688 25.1836C17.1641 25.2852 16.9609 25.2344 16.8086 25.082C16.6562 24.9805 16.6055 24.7773 16.6055 24.5742V20.3086C16.6055 19.2422 16.3008 18.4805 15.7422 17.9727C16.9609 17.8711 17.9258 17.668 18.5352 17.4648C19.4492 17.1602 20.2109 16.6523 20.7188 15.9414C21.2773 15.0781 21.582 13.8594 21.582 12.3359C21.582 11.7266 21.4297 11.168 21.2266 10.6602C21.0234 10.3555 20.7188 9.89844 20.2617 9.39062C20.3633 9.08594 20.4648 8.67969 20.5156 8.17188C20.5156 7.46094 20.4141 6.69922 20.1602 5.9375C19.8047 5.83594 19.3477 5.9375 18.7383 6.14062C18.332 6.34375 17.8242 6.54688 17.3164 6.85156L16.6562 7.30859C15.5898 7.00391 14.5234 6.85156 13.4062 6.85156C12.2891 6.85156 11.2734 7.00391 10.2578 7.30859L9.59766 6.85156C9.03906 6.54688 8.53125 6.34375 8.125 6.14062C7.51562 5.9375 7.05859 5.83594 6.75391 5.9375C6.44922 6.69922 6.29688 7.46094 6.39844 8.17188C6.39844 8.67969 6.44922 9.03516 6.60156 9.33984C6.19531 9.84766 5.89062 10.3555 5.6875 10.7617C5.48438 11.168 5.43359 11.7266 5.43359 12.3359C5.43359 13.8594 5.6875 15.0781 6.24609 15.8906C6.70312 16.6016 7.41406 17.1602 8.37891 17.4648C8.98828 17.668 9.90234 17.8711 11.1211 17.9727C10.6641 18.3789 10.4102 18.9883 10.3086 19.6992C9.69922 20.0039 9.14062 20.1055 8.63281 20.0039C7.71875 19.9531 7.05859 19.4961 6.60156 18.6328C6.39844 18.2773 6.09375 17.9727 5.78906 17.7188C5.53516 17.6172 5.28125 17.4648 5.02734 17.3633L4.67188 17.3125C4.26562 17.3125 4.0625 17.4141 4.0625 17.5156C4.0625 17.6172 4.11328 17.7695 4.31641 17.8711L4.57031 18.0742C4.77344 18.2266 5.02734 18.4297 5.28125 18.7344C5.48438 18.9883 5.63672 19.2422 5.78906 19.5469L5.99219 19.9531C6.14453 20.4609 6.44922 20.8672 6.95703 21.1211C7.36328 21.375 7.82031 21.5273 8.42969 21.5781C8.83594 21.6289 9.24219 21.6289 9.69922 21.5273L10.2578 21.4766L10.3086 24.5742C10.3086 24.7773 10.207 24.9805 10.0547 25.082C9.90234 25.2344 9.69922 25.2852 9.44531 25.1836C6.85547 24.3711 4.77344 22.8477 3.19922 20.6133C1.57422 18.3789 0.8125 15.8906 0.8125 13.0469C0.8125 10.7617 1.32031 8.67969 2.4375 6.75C3.50391 4.87109 4.97656 3.39844 6.90625 2.28125C8.78516 1.21484 10.918 0.65625 13.2539 0.65625ZM5.73828 18.1758C5.78906 18.125 5.89062 18.125 5.99219 18.2266C6.09375 18.3281 6.09375 18.4297 6.04297 18.4805C5.94141 18.582 5.89062 18.5312 5.78906 18.4297C5.6875 18.3281 5.63672 18.2773 5.73828 18.1758ZM5.17969 17.7695C5.23047 17.7188 5.33203 17.7188 5.43359 17.7695C5.53516 17.8203 5.53516 17.8711 5.53516 17.9727C5.48438 18.0742 5.38281 18.0742 5.28125 17.9727C5.17969 17.9219 5.12891 17.8711 5.17969 17.7695ZM6.85547 19.5469C6.85547 19.5469 6.90625 19.5469 7.00781 19.5469C7.05859 19.5469 7.10938 19.5977 7.16016 19.6484C7.21094 19.6992 7.26172 19.75 7.26172 19.8008C7.26172 19.9023 7.26172 19.9531 7.26172 19.9531C7.16016 20.0547 7.00781 20.0547 6.90625 19.9023C6.80469 19.8516 6.80469 19.8008 6.80469 19.6992C6.80469 19.6484 6.80469 19.5977 6.85547 19.5469ZM6.24609 18.8359C6.29688 18.8359 6.34766 18.8359 6.39844 18.8359C6.44922 18.8359 6.5 18.8867 6.55078 18.9375C6.65234 19.0898 6.65234 19.1914 6.55078 19.2422C6.5 19.293 6.44922 19.293 6.39844 19.2422C6.34766 19.2422 6.29688 19.1914 6.24609 19.1406C6.14453 18.9883 6.14453 18.8867 6.24609 18.8359Z" fill="#175297"/>
</svg>
