<svg width="56" height="48" viewBox="0 0 56 48" fill="none" xmlns="http://www.w3.org/2000/svg">
<path d="M7.32728 10.2117L0.115681 10.1553L9.9823 0.059079L9.92371 7.55914C9.86737 9.05783 8.71349 10.2117 7.32753 10.2117L7.32728 10.2117ZM28.6171 32.8267C30.8099 33.0002 33.406 33.5771 34.0979 35.193C34.3278 35.7113 34.5013 36.5767 33.8094 37.7305C33.521 38.1925 33.1176 38.4224 32.597 38.4224C32.1936 38.4224 30.9248 38.4224 27.808 34.5574H26.884C26.4806 34.5574 26.2484 34.5574 26.1335 34.616C22.6719 35.078 18.7483 36.3468 15.4015 38.0776C15.1716 38.481 14.9981 38.8844 14.766 39.2315C14.7074 39.3464 14.5924 39.5199 14.4775 39.6935C12.6318 42.9252 10.6125 45.866 8.82314 45.866C8.41974 45.866 7.89913 45.7511 7.43944 45.1155C7.03604 44.5972 6.9211 43.9617 6.97744 43.3261C7.26591 41.5367 9.28516 39.9232 11.0746 38.7107L11.1331 38.6521C12.0572 38.0166 13.0938 37.3833 14.1327 36.8064C15.575 33.7482 16.8438 29.4212 17.8241 25.5563H17.3058C14.8832 25.5563 12.9202 23.5957 12.9202 21.1707L12.9225 7.84717C12.9225 5.42453 14.8831 3.46159 17.308 3.46159H38.884V2.94326C38.884 1.3274 37.5003 0 35.8258 0H11.6537L11.5951 7.55891C11.5951 9.98155 9.63447 11.9445 7.26814 11.9445L0 11.9422V45.0567C0 46.6726 1.3837 48 3.05818 48H38.8277C38.8863 46.4991 38.8863 35.8845 38.9426 25.385H23.7129C25.2116 27.9812 26.9424 30.636 28.6168 32.8262L28.6171 32.8267ZM21.8088 25.3266H19.616C18.8092 28.7882 17.7703 32.4234 16.5578 35.4228L16.7313 35.3642L16.6727 35.4814C19.6723 34.154 22.9601 33.2323 25.9624 32.7703C26.0773 32.7703 26.2509 32.7117 26.4244 32.7117L26.3658 32.5968H26.4244C24.8085 30.4626 23.2513 27.8665 21.809 25.3264L21.8088 25.3266ZM32.7115 35.9432C32.538 35.5398 31.7312 35.0778 30.3452 34.7894C31.5577 36.1168 32.3058 36.5788 32.5943 36.6351C32.7115 36.3466 32.7701 36.1167 32.7115 35.9432H32.7115ZM32.6552 36.6351V37.5005V36.6351ZM8.71268 43.4434C8.71268 43.6169 8.71268 43.7319 8.82762 43.9054C8.88621 44.0203 8.94255 44.0203 8.94255 44.0203C9.34595 44.0203 10.3263 43.4434 12.634 39.6348C12.4604 39.7497 12.2869 39.8646 12.172 39.9818L12.1134 40.0404C9.98146 41.4241 8.82761 42.6343 8.71268 43.4434V43.4434ZM35.5398 11.7124H34.848V16.5576H35.5398C36.1168 16.5576 36.5201 16.499 36.7523 16.3841C36.9822 16.2692 37.2143 16.0371 37.3292 15.6923C37.4442 15.3452 37.5591 14.8855 37.5591 14.135C37.5591 13.211 37.3856 12.5192 37.0971 12.1744C36.8086 11.8859 36.2881 11.7124 35.5399 11.7124L35.5398 11.7124ZM26.654 11.5388H25.8472V13.4995H26.5391C27.0574 13.4995 27.4631 13.3845 27.6343 13.211C27.8642 13.0375 27.9814 12.8076 27.9814 12.5192C27.9814 12.2307 27.8664 12.0008 27.6929 11.8273C27.5194 11.5974 27.1746 11.5388 26.654 11.5388H26.654ZM55.3856 8.30712V20.5374C55.3856 22.1533 54.0582 23.4807 52.4423 23.4807H17.8855C16.2696 23.4807 14.9422 22.1533 14.9422 20.5374V8.30712C14.9422 6.69126 16.2696 5.36386 17.8855 5.36386H52.5012C54.117 5.36611 55.3858 6.69351 55.3858 8.30712H55.3856ZM30.6365 12.4628C30.6365 11.5974 30.4067 10.9055 29.8861 10.4435C29.3677 9.98155 28.6173 9.75169 27.637 9.75169L23.0779 9.74943V18.633H25.8476V15.2886H27.3486C28.4438 15.2886 29.3092 15.0587 29.8298 14.5381C30.3481 14.0198 30.6366 13.3279 30.6366 12.4625L30.6365 12.4628ZM40.3272 14.135C40.3272 13.4994 40.2686 12.9225 40.0973 12.4042C39.9238 11.8858 39.6939 11.3652 39.4055 10.9618C39.0584 10.5584 38.655 10.2114 38.193 10.0378C37.6747 9.80797 37.0391 9.69078 36.2324 9.69078H32.1352V18.5743H36.2324C36.6943 18.5743 37.2713 18.5157 37.8482 18.3445C38.3102 18.2295 38.7136 17.9974 39.0607 17.6526C39.4641 17.3055 39.7525 16.8458 39.9847 16.3252C40.2123 15.8069 40.3272 15.0587 40.3272 14.1347L40.3272 14.135ZM48.5778 9.69307H41.7695V18.5766H44.5392V14.9415H48.0008V13.1521H44.5392V11.5949H48.5777L48.5778 9.69307Z" fill="#175297"/>
</svg>
