<svg width="43" height="34" viewBox="0 0 43 34" fill="none" xmlns="http://www.w3.org/2000/svg">
<path d="M19.2344 25.875C19.2344 27.875 18.4219 29.625 16.7969 31.125C15.2031 32.625 13.3125 33.375 11.125 33.375C7.6875 33.375 5.04688 32.2344 3.20312 29.9531C1.35938 27.6719 0.4375 24.5156 0.4375 20.4844C0.4375 16.7344 2.01562 12.9531 5.17188 9.14062C8.35938 5.32812 12.1875 2.4375 16.6562 0.46875L18.7188 3.79688C15.1875 5.51562 12.4219 7.51562 10.4219 9.79688C8.42188 12.0781 7.26562 14.8438 6.95312 18.0938H9.57812C11.5156 18.0938 13.0938 18.3125 14.3125 18.75C15.5312 19.1875 16.5156 19.7969 17.2656 20.5781C17.9844 21.3281 18.4844 22.1562 18.7656 23.0625C19.0781 23.9688 19.2344 24.9062 19.2344 25.875ZM42.3438 25.875C42.3438 27.875 41.5312 29.625 39.9062 31.125C38.3125 32.625 36.4219 33.375 34.2344 33.375C30.7969 33.375 28.1562 32.2344 26.3125 29.9531C24.4688 27.6719 23.5469 24.5156 23.5469 20.4844C23.5469 16.7344 25.125 12.9531 28.2812 9.14062C31.4688 5.32812 35.2969 2.4375 39.7656 0.46875L41.8281 3.79688C38.2969 5.51562 35.5312 7.51562 33.5312 9.79688C31.5312 12.0781 30.375 14.8438 30.0625 18.0938H32.6875C34.625 18.0938 36.2031 18.3125 37.4219 18.75C38.6406 19.1875 39.625 19.7969 40.375 20.5781C41.0938 21.3281 41.5938 22.1562 41.875 23.0625C42.1875 23.9688 42.3438 24.9062 42.3438 25.875Z" fill="#AD456B"/>
</svg>
