<svg width="26" height="22" viewBox="0 0 26 22" fill="none" xmlns="http://www.w3.org/2000/svg">
<path d="M23.3086 5.96875C24.3242 5.20703 25.2383 4.29297 26 3.17578C24.9844 3.63281 23.9688 3.9375 22.9531 4.03906C24.0703 3.32812 24.8828 2.36328 25.2891 1.09375C24.2227 1.70312 23.1055 2.16016 21.8867 2.36328C21.3789 1.85547 20.7695 1.44922 20.1094 1.14453C19.4492 0.839844 18.7383 0.6875 17.9766 0.6875C17.0117 0.6875 16.1484 0.941406 15.3359 1.39844C14.5234 1.90625 13.8633 2.56641 13.4062 3.37891C12.8984 4.19141 12.6953 5.10547 12.6953 6.01953C12.6953 6.42578 12.6953 6.83203 12.7969 7.23828C10.6133 7.13672 8.58203 6.62891 6.65234 5.61328C4.72266 4.64844 3.14844 3.32812 1.82812 1.65234C1.32031 2.51562 1.06641 3.42969 1.06641 4.34375C1.06641 5.25781 1.26953 6.12109 1.72656 6.88281C2.13281 7.69531 2.74219 8.30469 3.45312 8.8125C2.58984 8.8125 1.77734 8.55859 1.06641 8.10156V8.20312C1.06641 9.47266 1.47266 10.5898 2.28516 11.5547C3.09766 12.5703 4.11328 13.1797 5.33203 13.4336C4.82422 13.5352 4.36719 13.5859 3.91016 13.5859C3.60547 13.5859 3.25 13.5859 2.94531 13.5352C3.25 14.6016 3.85938 15.4648 4.77344 16.1758C5.6875 16.8867 6.70312 17.1914 7.92188 17.1914C5.94141 18.7148 3.70703 19.4766 1.26953 19.4766C0.761719 19.4766 0.355469 19.4766 0 19.4258C2.4375 21.0508 5.17969 21.8125 8.17578 21.8125C11.2734 21.8125 14.0156 21.0508 16.4531 19.4258C18.6367 18.0039 20.3633 16.125 21.582 13.6875C22.75 11.4531 23.3594 9.06641 23.3594 6.62891C23.3594 6.32422 23.3086 6.12109 23.3086 5.96875Z" fill="#175297"/>
</svg>
